<?xml version="1.0" encoding="utf-8"?>
<!-- Generator: Adobe Illustrator 16.0.3, SVG Export Plug-In . SVG Version: 6.00 Build 0)  -->
<!DOCTYPE svg PUBLIC "-//W3C//DTD SVG 1.1//EN" "http://www.w3.org/Graphics/SVG/1.1/DTD/svg11.dtd">
<svg version="1.1" id="logo" xmlns="http://www.w3.org/2000/svg" xmlns:xlink="http://www.w3.org/1999/xlink" x="0px" y="0px"
	 width="600px" height="200px" viewBox="0 0 600 200" enable-background="new 0 0 600 200" xml:space="preserve">
<g id="img">
	<g>
		<path fill="#3FA9F5" d="M225,134c0,8.8-5.983,19.604-13.604,24.007l-58.67,33.986c-7.619,4.403-20.021,4.403-27.643,0
			L66.07,158.007C58.452,153.604,52,142.8,52,134V66c0-8.8,6.481-19.603,14.103-24.007l58.92-33.985
			c7.619-4.404,20.148-4.404,27.77,0l58.576,33.985C218.985,46.397,225,57.2,225,66V134z"/>
	</g>
	<g>
		<path fill="#FFFFFF" d="M105,49.129c0-5.5,3.896-7.75,8.66-5l87.68,50.621c4.763,2.75,4.763,7.25,0,10l-87.68,50.621
			c-4.765,2.75-8.66,0.5-8.66-5V49.129z"/>
	</g>
</g>
<g id="text">
	<path fill="#2299EE" d="M279.173,132.234V67.81h8.745l33.838,50.581V67.81h8.174v64.424h-8.745l-33.838-50.625v50.625H279.173z"/>
	<path fill="#2299EE" d="M341.661,100.857c0-10.693,2.871-19.065,8.613-25.115c5.742-6.049,13.154-9.075,22.236-9.075
		c5.946,0,11.309,1.421,16.084,4.263c4.773,2.842,8.416,6.805,10.922,11.887c2.504,5.083,3.756,10.848,3.756,17.292
		c0,6.534-1.318,12.377-3.955,17.536c-2.637,5.156-6.371,9.062-11.205,11.711c-4.834,2.651-10.049,3.978-15.645,3.978
		c-6.064,0-11.486-1.465-16.261-4.396c-4.775-2.931-8.396-6.929-10.854-11.996C342.894,111.873,341.661,106.512,341.661,100.857z
		 M350.45,100.988c0,7.764,2.088,13.881,6.264,18.348c4.176,4.469,9.411,6.701,15.711,6.701c6.416,0,11.695-2.256,15.844-6.768
		c4.145-4.514,6.217-10.912,6.217-19.206c0-5.244-0.887-9.822-2.658-13.733s-4.363-6.943-7.775-9.097
		c-3.414-2.153-7.244-3.23-11.492-3.23c-6.035,0-11.229,2.073-15.58,6.218C352.628,84.371,350.45,91.292,350.45,100.988z"/>
	<path fill="#2299EE" d="M432.673,132.234L407.712,67.81h9.229l16.744,46.801c1.348,3.75,2.475,7.266,3.383,10.547
		c0.996-3.516,2.154-7.031,3.473-10.547l17.402-46.801h8.701l-25.225,64.424H432.673z"/>
	<path fill="#2299EE" d="M460.532,132.234l24.742-64.424h9.186l26.365,64.424h-9.711l-7.516-19.512H476.66l-7.074,19.512H460.532z
		 M479.122,105.779h21.842l-6.725-17.842c-2.051-5.42-3.574-9.873-4.568-13.359c-0.82,4.131-1.979,8.233-3.475,12.305
		L479.122,105.779z"/>
</g>
</svg>
